<?xml version="1.0" encoding="utf-8"?>
<!-- Generator: Adobe Illustrator 25.0.0, SVG Export Plug-In . SVG Version: 6.00 Build 0)  -->
<svg version="1.1" id="Warstwa_1" xmlns="http://www.w3.org/2000/svg" xmlns:xlink="http://www.w3.org/1999/xlink" x="0px" y="0px"
	 viewBox="0 0 340.2 170.1" style="enable-background:new 0 0 340.2 170.1;" xml:space="preserve">
<style type="text/css">
	.st0{fill:#FFFFFF;}
</style>
<g>
	<path class="st0" d="M29.7,146.9h-2.8l-7.5-10l-2.2,1.9v8.1h-2.4v-20.6h2.4v10.2l9.3-10.2h2.8l-8.3,8.9L29.7,146.9z"/>
	<path class="st0" d="M34.4,131.5v10c0,1.3,0.3,2.2,0.9,2.8s1.5,0.9,2.7,0.9c1.6,0,2.8-0.4,3.5-1.3c0.7-0.9,1.1-2.3,1.1-4.3v-8.1
		h2.3v15.4H43l-0.3-2.1h-0.1c-0.5,0.8-1.1,1.3-2,1.7s-1.8,0.6-2.9,0.6c-1.9,0-3.3-0.4-4.2-1.3c-0.9-0.9-1.4-2.3-1.4-4.3v-10.1h2.3
		V131.5z"/>
	<path class="st0" d="M57,147.2c-1,0-1.9-0.2-2.8-0.6c-0.8-0.4-1.5-0.9-2.1-1.7h-0.2c0.1,0.9,0.2,1.8,0.2,2.6v6.4h-2.2v-22.4h1.9
		l0.3,2.1h0.1c0.6-0.8,1.3-1.5,2.1-1.8s1.7-0.6,2.7-0.6c2,0,3.6,0.7,4.7,2.1c1.1,1.4,1.7,3.4,1.7,5.9s-0.6,4.5-1.7,5.9
		C60.6,146.5,59.1,147.2,57,147.2z M56.7,133.2c-1.6,0-2.7,0.4-3.4,1.3s-1.1,2.3-1.1,4.2v0.5c0,2.2,0.4,3.7,1.1,4.7
		c0.7,0.9,1.9,1.4,3.5,1.4c1.3,0,2.4-0.5,3.1-1.6s1.1-2.6,1.1-4.5s-0.4-3.4-1.1-4.4S58.1,133.2,56.7,133.2z"/>
	<path class="st0" d="M79.5,141.4c0,1.8-0.7,3.2-2,4.2s-3.1,1.5-5.4,1.5c-2.4,0-4.3-0.3-5.6-0.9V144c0.8,0.4,1.8,0.6,2.8,0.8
		s2,0.3,3,0.3c1.6,0,2.8-0.3,3.6-0.9c0.8-0.6,1.2-1.4,1.2-2.5c0-0.7-0.1-1.3-0.4-1.8s-0.8-0.9-1.4-1.3c-0.7-0.4-1.7-0.8-3.1-1.3
		c-1.9-0.7-3.3-1.5-4.1-2.4c-0.8-0.9-1.2-2.2-1.2-3.7c0-1.6,0.6-2.8,1.8-3.8c1.2-0.9,2.8-1.4,4.7-1.4c2,0,3.9,0.4,5.6,1.1l-0.7,2.1
		c-1.7-0.7-3.4-1.1-5-1.1c-1.3,0-2.3,0.3-3,0.8s-1.1,1.3-1.1,2.3c0,0.7,0.1,1.3,0.4,1.8s0.7,0.9,1.3,1.3c0.6,0.4,1.6,0.8,2.9,1.3
		c2.2,0.8,3.6,1.6,4.5,2.5S79.5,140,79.5,141.4z"/>
	<path class="st0" d="M96.7,139.2c0,2.5-0.6,4.5-1.9,5.9s-3,2.1-5.3,2.1c-1.4,0-2.6-0.3-3.7-1c-1.1-0.6-1.9-1.6-2.5-2.8
		s-0.9-2.6-0.9-4.3c0-2.5,0.6-4.5,1.9-5.9s3-2.1,5.2-2.1s3.9,0.7,5.1,2.2C96,134.8,96.7,136.7,96.7,139.2z M84.9,139.2
		c0,2,0.4,3.5,1.2,4.5c0.8,1,1.9,1.5,3.5,1.5c1.5,0,2.7-0.5,3.5-1.5s1.2-2.5,1.2-4.5s-0.4-3.5-1.2-4.5c-0.8-1-2-1.5-3.5-1.5
		s-2.7,0.5-3.5,1.5C85.3,135.7,84.9,137.2,84.9,139.2z"/>
	<path class="st0" d="M108,131.2c2,0,3.6,0.7,4.7,2.1c1.1,1.4,1.7,3.3,1.7,5.9s-0.6,4.5-1.7,5.9s-2.7,2.1-4.7,2.1
		c-1,0-1.9-0.2-2.8-0.6c-0.8-0.4-1.5-0.9-2.1-1.7h-0.2l-0.5,2h-1.7V125h2.3v5.3c0,1.2,0,2.3-0.1,3.2h0.1
		C104.2,132,105.8,131.2,108,131.2z M107.6,133.2c-1.6,0-2.7,0.5-3.5,1.4s-1.1,2.5-1.1,4.6s0.4,3.7,1.1,4.7c0.7,0.9,1.9,1.4,3.5,1.4
		c1.4,0,2.5-0.5,3.2-1.6s1.1-2.6,1.1-4.5c0-2-0.4-3.5-1.1-4.5C110.2,133.7,109.1,133.2,107.6,133.2z"/>
	<path class="st0" d="M118.3,127.3c0-0.5,0.1-0.9,0.4-1.2c0.3-0.2,0.6-0.4,1-0.4s0.7,0.1,1,0.4s0.4,0.6,0.4,1.2
		c0,0.5-0.1,0.9-0.4,1.2s-0.6,0.4-1,0.4s-0.7-0.1-1-0.4C118.4,128.2,118.3,127.8,118.3,127.3z M120.8,146.9h-2.3v-15.4h2.3V146.9z"
		/>
	<path class="st0" d="M132.3,147.2c-2.3,0-4.1-0.7-5.4-2.1s-2-3.3-2-5.8s0.6-4.5,1.8-5.9s2.9-2.2,4.9-2.2c1.9,0,3.5,0.6,4.6,1.9
		s1.7,2.9,1.7,5v1.5h-10.6c0,1.8,0.5,3.2,1.4,4.1c0.9,0.9,2.1,1.4,3.7,1.4c1.7,0,3.3-0.3,4.9-1v2.1c-0.8,0.4-1.6,0.6-2.3,0.8
		S133.3,147.2,132.3,147.2z M131.6,133.2c-1.2,0-2.2,0.4-3,1.2c-0.7,0.8-1.2,1.9-1.3,3.4h8.1c0-1.5-0.3-2.6-1-3.4
		S132.9,133.2,131.6,133.2z"/>
	<path class="st0" d="M154.6,146.9l-1.5-4.9h-7.5l-1.5,4.9h-4.7l7.3-20.7h5.3l7.3,20.7H154.6z M152.1,138.4c-1.4-4.4-2.2-7-2.3-7.5
		s-0.3-1-0.4-1.4c-0.3,1.2-1.2,4.2-2.7,8.9H152.1z"/>
	<path class="st0" d="M170.4,130.9c0.6,0,1.1,0,1.5,0.1l-0.3,4c-0.3-0.1-0.8-0.1-1.3-0.1c-1.4,0-2.4,0.4-3.2,1.1
		c-0.8,0.7-1.1,1.7-1.1,3v8h-4.3v-15.7h3.3l0.6,2.6h0.2c0.5-0.9,1.1-1.6,2-2.1C168.5,131.2,169.4,130.9,170.4,130.9z"/>
	<path class="st0" d="M181.1,147.2c-4.9,0-7.4-2.7-7.4-8.1c0-2.7,0.7-4.7,2-6.1c1.3-1.4,3.2-2.1,5.7-2.1c1.8,0,3.5,0.4,4.9,1.1
		l-1.3,3.3c-0.7-0.3-1.3-0.5-1.9-0.7c-0.6-0.2-1.2-0.3-1.7-0.3c-2.2,0-3.4,1.6-3.4,4.8c0,3.1,1.1,4.6,3.4,4.6c0.8,0,1.6-0.1,2.3-0.3
		s1.4-0.6,2.1-1v3.7c-0.7,0.4-1.4,0.7-2.1,0.9C183.1,147.1,182.2,147.2,181.1,147.2z"/>
	<path class="st0" d="M204,146.9h-4.3v-9.2c0-2.3-0.8-3.4-2.5-3.4c-1.2,0-2.1,0.4-2.6,1.2s-0.8,2.1-0.8,4v7.4h-4.3V125h4.3v4.5
		c0,0.3,0,1.2-0.1,2.5l-0.1,1.3h0.2c1-1.5,2.5-2.3,4.6-2.3c1.8,0,3.3,0.5,4.2,1.5s1.4,2.4,1.4,4.3L204,146.9L204,146.9z"/>
	<path class="st0" d="M208.3,127.1c0-1.4,0.8-2.1,2.3-2.1s2.3,0.7,2.3,2.1c0,0.7-0.2,1.2-0.6,1.6c-0.4,0.4-1,0.6-1.8,0.6
		C209.1,129.2,208.3,128.5,208.3,127.1z M212.8,146.9h-4.3v-15.7h4.3V146.9z"/>
	<path class="st0" d="M223.9,143.8c0.8,0,1.7-0.2,2.7-0.5v3.2c-1.1,0.5-2.4,0.7-3.9,0.7c-1.7,0-3-0.4-3.8-1.3
		c-0.8-0.9-1.2-2.2-1.2-3.9v-7.6h-2.1v-1.8l2.4-1.4l1.2-3.3h2.7v3.4h4.4v3.2h-4.4v7.6c0,0.6,0.2,1.1,0.5,1.4
		C222.9,143.6,223.3,143.8,223.9,143.8z"/>
	<path class="st0" d="M236.9,147.2c-2.5,0-4.5-0.7-5.9-2.1c-1.4-1.4-2.1-3.4-2.1-5.9c0-2.6,0.7-4.7,2-6.1c1.3-1.4,3.1-2.2,5.5-2.2
		c2.2,0,4,0.6,5.2,1.9c1.2,1.3,1.9,3,1.9,5.3v2.1h-10.2c0,1.2,0.4,2.2,1.1,2.9c0.7,0.7,1.6,1,2.8,1c0.9,0,1.8-0.1,2.7-0.3
		c0.8-0.2,1.7-0.5,2.6-0.9v3.3c-0.8,0.4-1.6,0.7-2.4,0.8C239.2,147.1,238.1,147.2,236.9,147.2z M236.3,133.9c-0.9,0-1.6,0.3-2.1,0.9
		c-0.5,0.6-0.8,1.4-0.9,2.5h6c0-1.1-0.3-1.9-0.8-2.5C237.9,134.2,237.2,133.9,236.3,133.9z"/>
	<path class="st0" d="M251,138.4l1.9-2.4l4.4-4.8h4.8l-6.3,6.8l6.6,8.9h-5l-4.5-6.4l-1.8,1.5v4.9h-4.3V125h4.3v9.8L251,138.4
		L251,138.4z"/>
	<path class="st0" d="M271.3,143.8c0.8,0,1.7-0.2,2.7-0.5v3.2c-1.1,0.5-2.4,0.7-3.9,0.7c-1.7,0-3-0.4-3.8-1.3
		c-0.8-0.9-1.2-2.2-1.2-3.9v-7.6H263v-1.8l2.4-1.4l1.2-3.3h2.7v3.4h4.4v3.2h-4.4v7.6c0,0.6,0.2,1.1,0.5,1.4
		C270.3,143.6,270.8,143.8,271.3,143.8z"/>
	<path class="st0" d="M287.2,146.9l-0.8-2.1h-0.1c-0.7,0.9-1.5,1.5-2.2,1.9s-1.8,0.5-3,0.5c-1.5,0-2.7-0.4-3.6-1.3
		c-0.9-0.9-1.3-2.1-1.3-3.7c0-1.7,0.6-2.9,1.8-3.7c1.2-0.8,2.9-1.2,5.3-1.3l2.7-0.1v-0.7c0-1.6-0.8-2.4-2.4-2.4
		c-1.3,0-2.7,0.4-4.4,1.1l-1.4-2.9c1.8-0.9,3.8-1.4,6-1.4c2.1,0,3.7,0.5,4.9,1.4c1.1,0.9,1.7,2.3,1.7,4.2v10.5H287.2z M286,139.6
		l-1.7,0.1c-1.2,0-2.2,0.3-2.8,0.7c-0.6,0.4-0.9,1-0.9,1.9c0,1.2,0.7,1.8,2.1,1.8c1,0,1.8-0.3,2.4-0.9s0.9-1.3,0.9-2.3V139.6z"/>
	<path class="st0" d="M294,144.9c0-0.8,0.2-1.4,0.6-1.8c0.4-0.4,1-0.6,1.8-0.6s1.4,0.2,1.8,0.6c0.4,0.4,0.6,1,0.6,1.8
		c0,0.7-0.2,1.3-0.6,1.8c-0.4,0.4-1,0.6-1.8,0.6s-1.4-0.2-1.8-0.6C294.3,146.3,294,145.7,294,144.9z"/>
	<path class="st0" d="M311.5,147.2c-1.8,0-3.3-0.7-4.4-2h-0.2c0.2,1.3,0.2,2.1,0.2,2.3v6.4h-4.2v-22.7h3.5l0.6,2h0.2
		c1-1.6,2.5-2.3,4.5-2.3c1.9,0,3.3,0.7,4.4,2.2c1.1,1.4,1.6,3.4,1.6,6c0,1.7-0.2,3.1-0.7,4.4c-0.5,1.2-1.2,2.2-2.1,2.8
		C313.8,146.9,312.7,147.2,311.5,147.2z M310.2,134.3c-1.1,0-1.8,0.3-2.3,1s-0.7,1.7-0.8,3.2v0.5c0,1.7,0.3,2.9,0.8,3.6
		c0.5,0.7,1.3,1.1,2.4,1.1c1.9,0,2.9-1.6,2.9-4.8c0-1.5-0.2-2.7-0.7-3.5C312,134.7,311.3,134.3,310.2,134.3z"/>
	<path class="st0" d="M325.4,146.9h-4.3V125h4.3V146.9z"/>
	<path class="st0" d="M208.4,52.9l-35.3-35.3c-1.8-1.8-4.7-1.8-6.5,0l-19.8,19.8v-4.1c0-2.3-1.9-4.2-4.2-4.2h-2.1
		c-2.3,0-4.2,1.9-4.2,4.2v14.5l-5.1,5.1c-1.8,1.8-1.8,4.7,0,6.5h3.6v35.4c0,3,2.4,5.4,5.4,5.4h59.1c3,0,5.4-2.4,5.4-5.4V59.4h3.6
		C210.2,57.6,210.2,54.7,208.4,52.9z M169.8,83c-10.2,0-19-4.2-23.9-10.4l3.7-3.7c3.6,5.8,11.3,9.8,20.2,9.8s16.6-4,20.2-9.8
		l3.7,3.7C188.8,78.8,180,83,169.8,83z"/>
</g>
</svg>
